<svg width="750" height="700" viewBox="0 0 750 700" fill="none" xmlns="http://www.w3.org/2000/svg">
<g id="undraw_coding_6mjf 1" clip-path="url(#clip0)">
<g id="leaf">
<g id="Group 5">
<path id="Vector" d="M108.845 245.489C108.845 245.489 169.856 310.677 135.417 407.37C100.978 504.062 194.447 664.991 194.447 664.991C194.447 664.991 193.448 664.831 191.592 664.484C66.289 640.851 4.02908 487.732 73.7396 374.015C99.6126 331.686 120.874 282.081 108.845 245.489Z" fill="#436D45"/>
<path id="Vector_2" d="M108.845 245.489C108.845 245.489 143.284 325.398 108.845 390.577C74.4056 455.756 102.942 638.734 194.455 664.991" stroke="white" stroke-width="2" stroke-miterlimit="10"/>
</g>
</g>
<g id="pot">
<path id="Vector_3" d="M0.174805 509.141C0.174805 509.141 69.7938 497.294 76.1371 563.958C82.4805 630.623 210.014 639.864 210.014 639.864C210.014 639.864 209.182 640.469 207.625 641.563C102.326 715.388 1.67324 688.606 16.8491 590.544C22.4848 554.085 22.0187 517.466 0.174805 509.141Z" fill="#310B02"/>
<path id="Vector_4" opacity="0.2" d="M0.174805 509.141C0.174805 509.141 69.7938 497.294 76.1371 563.958C82.4805 630.623 210.014 639.864 210.014 639.864C210.014 639.864 209.182 640.469 207.625 641.563C102.326 715.388 1.67324 688.606 16.8491 590.544C22.4848 554.085 22.0187 517.466 0.174805 509.141Z" fill="white"/>
<path id="Vector_5" d="M0.174805 509.141C0.174805 509.141 54.21 521.816 49.773 574.311C45.336 626.807 130.023 689.771 210.014 639.864" stroke="#8F8F8F" stroke-width="2" stroke-miterlimit="10"/>
</g>
<g id="blocks">
<path id="Vector_6" opacity="0.2" d="M678.982 251.715H635.694V275.731H678.982V251.715Z" fill="#58436D"/>
<path id="Vector_7" opacity="0.2" d="M682.312 281.067H639.024V305.083H682.312V281.067Z" fill="#58436D"/>
<path id="Vector_8" opacity="0.2" d="M646.516 77.3826H603.228V101.398H646.516V77.3826Z" fill="#58436D"/>
<path id="Vector_9" opacity="0.2" d="M677.318 104.956H634.03V128.971H677.318V104.956Z" fill="#58436D"/>
<path id="Vector_10" opacity="0.2" d="M594.071 79.1614H550.783V103.177H594.071V79.1614Z" fill="#58436D"/>
<path id="Vector_11" opacity="0.2" d="M733.093 132.529H689.804V156.544H733.093V132.529Z" fill="#58436D"/>
<path id="Vector_12" opacity="0.2" d="M680.647 134.308H637.359V158.323H680.647V134.308Z" fill="#58436D"/>
<path id="Vector_13" opacity="0.2" d="M624.872 106.734H581.584V130.75H624.872V106.734Z" fill="#58436D"/>
<path id="Vector_14" opacity="0.2" d="M730.595 317.535H687.307V341.55H730.595V317.535Z" fill="#58436D"/>
<path id="Vector_15" opacity="0.2" d="M678.15 319.314H634.862V343.329H678.15V319.314Z" fill="#58436D"/>
<path id="Vector_16" opacity="0.2" d="M43.8125 252.605H0.524414V276.62H43.8125V252.605Z" fill="#58436D"/>
<path id="Vector_17" opacity="0.2" d="M74.6138 280.178H31.3257V304.193H74.6138V280.178Z" fill="#58436D"/>
<path id="Vector_18" opacity="0.2" d="M308.536 0H265.248V24.0152H308.536V0Z" fill="#58436D"/>
<path id="Vector_19" opacity="0.2" d="M649.846 442.948H606.558V466.963H649.846V442.948Z" fill="#58436D"/>
<path id="Vector_20" opacity="0.2" d="M77.9436 309.53H34.6555V333.545H77.9436V309.53Z" fill="#58436D"/>
<path id="Vector_21" opacity="0.2" d="M339.337 27.573H296.049V51.5882H339.337V27.573Z" fill="#58436D"/>
<path id="Vector_22" opacity="0.2" d="M181.169 190.343H137.881V214.358H181.169V190.343Z" fill="#58436D"/>
<path id="Vector_23" opacity="0.2" d="M211.97 217.916H168.682V241.931H211.97V217.916Z" fill="#58436D"/>
<path id="Vector_24" opacity="0.2" d="M294.384 202.795H251.096V226.811H294.384V202.795Z" fill="#58436D"/>
<path id="Vector_25" opacity="0.2" d="M215.3 247.268H172.012V271.283H215.3V247.268Z" fill="#58436D"/>
<path id="Vector_26" opacity="0.2" d="M708.119 442.948H664.831V466.963H708.119V442.948Z" fill="#58436D"/>
</g>
<g id="person">
<path id="Vector_27" d="M599.915 347.874C597.112 331.208 595.393 314.354 594.77 297.433C594.217 283.499 589.643 270.088 581.675 259.04C573.708 247.991 562.737 239.847 550.267 235.723C545.722 234.229 540.719 232.832 535.191 231.578C486.742 220.585 472.024 230.182 470.35 231.445C468.933 228.692 467.701 225.836 466.663 222.897C466.579 222.595 466.504 222.292 466.421 222.008C476.01 211.082 481.852 197.008 482.995 182.08C491.079 173.328 495.799 162.761 495.799 151.385C495.799 141.601 492.302 132.422 486.184 124.479V109.02C486.184 91.1937 479.556 74.097 467.758 61.4916C455.96 48.8861 439.959 41.8044 423.275 41.8044H418.172C409.91 41.8044 401.73 43.543 394.097 46.921C386.465 50.2989 379.53 55.25 373.688 61.4916C367.846 67.7331 363.212 75.143 360.051 83.298C356.889 91.453 355.262 100.194 355.262 109.02V125.68C349.71 133.338 346.563 142.081 346.563 151.367C346.563 162.503 351.092 172.857 358.867 181.502C359.929 196.977 366.039 211.563 376.132 222.719C376.473 225.245 376.823 227.958 377.164 230.822L290.505 250.381C290.505 250.381 257.09 251.849 235.562 299.301C217.356 339.496 181.127 442.761 170.397 473.501C168.457 479.069 167.359 482.262 167.359 482.262C167.359 482.262 167.716 481.879 168.391 481.221L167.359 484.219C167.359 484.219 167.883 483.649 168.882 482.716C167.367 495.577 167.15 517.662 182.917 520.411C196.137 522.714 230.201 523.666 255.933 524.048H257.714C274.771 524.289 287.749 524.289 287.749 524.289V524.048H564.494V521.015C564.497 518.265 563.979 515.541 562.97 513.01L563.353 512.512C564.834 514.602 565.82 517.043 566.225 519.628C566.193 519.879 566.149 520.129 566.092 520.375L566.259 519.921C566.324 520.729 566.267 521.543 566.092 522.332C566.092 522.332 601.597 424.59 601.214 366.224C601.316 360.077 600.881 353.934 599.915 347.874ZM378.605 244.031C378.146 241.242 377.851 238.426 377.722 235.599C377.722 235.599 377.722 235.545 377.722 235.519C378.03 238.267 378.33 241.113 378.605 244.031ZM271.034 453.977V477.272L257.381 480.394L271.034 453.977Z" fill="url(#paint0_linear)"/>
<path id="Vector_28" d="M419.32 51.2058C436.005 51.2058 452.006 58.2875 463.804 70.8929C475.602 83.4984 482.23 100.595 482.23 118.422V147.098H356.411V118.422C356.411 100.595 363.039 83.4984 374.837 70.8929C386.635 58.2875 402.636 51.2058 419.32 51.2058Z" fill="#2B7A78"/>
<path id="Vector_29" d="M419.762 209.146C459.365 209.146 491.47 185.575 491.47 156.499C491.47 127.423 459.365 103.853 419.762 103.853C380.158 103.853 348.053 127.423 348.053 156.499C348.053 185.575 380.158 209.146 419.762 209.146Z" fill="#2B7A78"/>
<path id="Vector_30" d="M373.793 207.501C373.793 207.501 388.777 291.171 373.793 313.737C358.809 336.302 419.578 345.232 419.578 345.232L482.479 320.79L491.279 260.619C491.279 260.619 452.985 237.582 460.919 191.046L373.793 207.501Z" fill="#F7C4A7"/>
<path id="Vector_31" d="M559.449 489.546C559.449 489.546 563.412 507.878 541.851 511.169C529.12 513.17 516.173 513.005 503.491 510.68L498.737 464.633H548.893L559.449 489.546Z" fill="#F7C4A7"/>
<path id="Vector_32" d="M178.73 466.083C178.73 466.083 169.207 507.433 190.767 511.169C212.328 514.905 291.495 514.931 291.495 514.931V466.011L255.65 474.194L222.001 439.719L178.73 466.083Z" fill="#F7C4A7"/>
<path id="Vector_33" opacity="0.1" d="M378.421 234.531L294.168 253.565C294.168 253.565 262.051 254.98 241.373 300.573C220.695 346.166 175.816 476.383 175.816 476.383C175.816 476.383 214.11 435.014 258.971 479.202L288.89 421.388L282.289 513.055H514.113V469.801C514.113 469.801 562.504 497.534 558.991 513.046C558.991 513.046 600.406 399.036 591.457 347.225C588.763 331.208 587.111 315.011 586.512 298.75C585.984 285.357 581.589 272.467 573.931 261.85C566.273 251.233 555.727 243.408 543.741 239.45C539.378 238.018 534.583 236.675 529.256 235.474C479.541 224.196 466.821 235.474 466.821 235.474C466.821 235.474 457.189 268.953 457.364 284.127C457.581 303.633 431.408 316.565 431.408 316.565C431.408 316.565 392.69 306.693 390.933 298.705C389.177 290.718 375.325 243.933 378.421 234.531Z" fill="black"/>
<path id="Vector_34" d="M378.422 232.654L294.168 251.689C294.168 251.689 262.051 253.103 241.373 298.696C220.695 344.29 175.808 474.524 175.808 474.524C175.808 474.524 214.101 433.155 258.963 477.343L288.882 419.529L282.28 511.169H514.113V467.924C514.113 467.924 562.504 495.657 558.991 511.169C558.991 511.169 600.406 397.159 591.457 345.348C588.763 329.331 587.111 313.134 586.513 296.873C585.984 283.48 581.589 270.591 573.931 259.973C566.273 249.356 555.727 241.531 543.741 237.573C539.378 236.141 534.583 234.798 529.256 233.597C479.541 222.319 466.821 233.597 466.821 233.597C466.821 233.597 457.189 267.076 457.364 282.25C457.581 301.756 431.408 314.689 431.408 314.689C431.408 314.689 392.69 304.816 390.933 296.829C389.177 288.841 375.325 242.056 378.422 232.654Z" fill="#2B4853"/>
<path id="Vector_35" opacity="0.1" d="M464.515 228.661C460.976 217.955 460.182 206.432 462.217 195.288L375.092 211.734C375.092 211.734 376.349 218.77 377.772 229.31C383.401 235.551 390.16 240.504 397.637 243.867C405.114 247.23 413.153 248.933 421.266 248.872C429.378 248.811 437.394 246.988 444.826 243.514C452.258 240.039 458.951 234.986 464.498 228.661H464.515Z" fill="black"/>
<path id="Vector_36" d="M479.374 180.71C479.306 197.484 473.071 213.558 462.013 225.465C450.955 237.372 435.96 244.158 420.262 244.361C404.564 244.564 389.419 238.168 378.095 226.55C366.77 214.933 360.173 199.025 359.724 182.258C359.724 181.742 359.724 181.226 359.724 180.71C359.722 168.74 362.864 157.009 368.793 146.853C374.723 136.696 383.201 128.522 393.264 123.261C395.057 122.324 396.899 121.482 398.792 120.735C408.635 116.868 419.252 115.814 429.593 117.675C442.847 120.086 454.953 127.2 463.956 137.868C472.96 148.535 478.336 162.134 479.216 176.468C479.322 177.873 479.374 179.287 479.374 180.71Z" fill="#F7C4A7"/>
<path id="Vector_37" opacity="0.1" d="M398.7 122.238L398.784 122.184C396.891 122.931 395.049 123.773 393.256 124.71C383.193 129.972 374.714 138.146 368.785 148.303C362.855 158.459 359.713 170.19 359.716 182.16C359.716 182.676 359.716 183.192 359.716 183.708C361.576 183.654 363.405 183.184 365.085 182.329C379.67 175.053 388.394 152.799 391.857 137.278C393.106 131.719 394.28 125.458 398.7 122.238Z" fill="black"/>
<path id="Vector_38" opacity="0.1" d="M444.494 124.025C439.758 121.701 434.757 120.053 429.618 119.125C433.832 120.161 437.596 122.687 440.299 126.294C441.623 128.218 442.722 130.309 443.57 132.52C435.607 128.8 426.983 126.973 418.295 127.164C409.606 127.356 401.06 129.563 393.248 133.632C397.002 142.428 408.648 147.222 416.423 150.433C424.937 153.944 433.539 157.155 442.23 160.066L434.538 153.395L451.911 156.348C452.098 152.654 451.687 148.953 450.696 145.408C454.026 148.272 458.438 149.233 462.051 151.634C468.819 156.197 471.641 164.976 475.329 172.581C476.303 174.591 477.451 176.646 479.208 177.917C478.498 166.428 474.898 155.356 468.788 145.87C462.678 136.385 454.285 128.838 444.494 124.025Z" fill="black"/>
<path id="Vector_39" d="M398.7 120.788L398.784 120.734C396.891 121.482 395.049 122.324 393.256 123.26C383.193 128.522 374.714 136.696 368.785 146.853C362.855 157.009 359.713 168.74 359.716 180.71C359.716 181.226 359.716 181.742 359.716 182.258C361.576 182.204 363.405 181.734 365.085 180.879C379.67 173.603 388.394 151.349 391.857 135.828C393.106 130.305 394.28 124.016 398.7 120.788Z" fill="#350303"/>
<path id="Vector_40" d="M444.494 122.584C439.758 120.26 434.757 118.612 429.618 117.684C433.832 118.72 437.596 121.246 440.298 124.853C441.623 126.777 442.722 128.868 443.57 131.079C435.607 127.359 426.983 125.532 418.294 125.724C409.606 125.916 401.06 128.122 393.248 132.191C397.002 140.987 408.648 145.781 416.423 148.992C424.937 152.503 433.539 155.714 442.23 158.625L434.538 151.954L451.911 154.907C452.098 151.213 451.687 147.512 450.696 143.967C454.026 146.831 458.438 147.792 462.051 150.193C468.819 154.756 471.641 163.535 475.328 171.14C476.302 173.15 477.451 175.205 479.208 176.476C478.498 164.987 474.898 153.915 468.788 144.429C462.678 134.944 454.285 127.397 444.494 122.584Z" fill="#350303"/>
<path id="Vector_41" opacity="0.1" d="M352.89 170.17C352.89 170.17 414.492 88.3405 485.759 170.17L479.599 151.839C479.599 151.839 446.159 99.6633 422.409 110.924C398.659 122.184 375.333 130.198 375.333 130.198L352.89 170.17Z" fill="black"/>
<path id="Vector_42" d="M352.89 168.721C352.89 168.721 414.492 86.8908 485.759 168.721L479.599 150.389C479.599 150.389 446.159 98.2136 422.409 109.474C398.659 120.735 375.333 128.749 375.333 128.749L352.89 168.721Z" fill="#2B7A78"/>
<path id="Vector_43" opacity="0.1" d="M302.293 345.001C302.293 345.001 289.098 382.607 307.57 416.451C326.043 450.295 291.296 464.401 291.296 464.401" fill="black"/>
<path id="Vector_44" opacity="0.1" d="M516.111 311.157C516.111 311.157 538.987 342.182 524.028 369.915C509.068 397.648 509.951 464.401 509.951 464.401" fill="black"/>
<path id="Vector_45" opacity="0.1" d="M356.411 131.817C356.411 131.817 416.948 67.1715 482.238 130.634" stroke="black" stroke-miterlimit="10"/>
</g>
<g id="laptop">
<path id="Vector_46" d="M282.055 492.135H536.348C541.949 492.135 547.321 494.512 551.282 498.744C555.243 502.976 557.468 508.715 557.468 514.7H260.944C260.944 508.717 263.168 502.979 267.127 498.747C271.086 494.516 276.456 492.137 282.055 492.135Z" fill="#535461"/>
<path id="Vector_47" d="M307.928 337.005H510.484C514.747 337.005 518.969 337.902 522.908 339.646C526.847 341.389 530.426 343.944 533.441 347.165C536.455 350.386 538.847 354.21 540.478 358.419C542.11 362.628 542.95 367.138 542.95 371.694V497.302H275.462V371.694C275.462 362.494 278.883 353.671 284.971 347.165C291.06 340.66 299.318 337.005 307.928 337.005Z" fill="#535461"/>
<path id="Vector_48" d="M408.981 441.133C417.73 441.133 424.823 433.555 424.823 424.207C424.823 414.859 417.73 407.281 408.981 407.281C400.232 407.281 393.139 414.859 393.139 424.207C393.139 433.555 400.232 441.133 408.981 441.133Z" fill="white"/>
</g>
<g id="headset">
<path id="Vector_49" d="M497.53 127.699H491.453V164.513H497.53V127.699Z" fill="#626262"/>
<path id="Vector_50" d="M483.345 151.518C488.9 151.518 494.228 153.876 498.155 158.073C502.083 162.27 504.29 167.962 504.29 173.897V175.338C504.29 181.273 502.083 186.965 498.155 191.162C494.228 195.359 488.9 197.717 483.345 197.717V151.518Z" fill="#626262"/>
<path id="Vector_51" d="M488.748 154.409C488.748 151.619 486.631 149.357 484.019 149.357C481.408 149.357 479.291 151.619 479.291 154.409V194.835C479.291 197.625 481.408 199.887 484.019 199.887C486.631 199.887 488.748 197.625 488.748 194.835V154.409Z" fill="#B0AFAF"/>
<path id="Vector_52" d="M340.494 165.234H346.571V128.419H340.494V165.234Z" fill="#626262"/>
<path id="Vector_53" d="M354.68 198.437C349.125 198.437 343.797 196.079 339.87 191.882C335.942 187.686 333.735 181.994 333.735 176.058V174.617C333.735 171.679 334.277 168.769 335.329 166.053C336.382 163.338 337.925 160.871 339.87 158.793C341.814 156.715 344.123 155.067 346.664 153.942C349.206 152.818 351.929 152.239 354.68 152.239V198.437Z" fill="#626262"/>
<path id="Vector_54" d="M349.277 195.546C349.277 198.336 351.394 200.598 354.005 200.598C356.617 200.598 358.734 198.336 358.734 195.546V155.121C358.734 152.33 356.617 150.069 354.005 150.069C351.394 150.069 349.277 152.33 349.277 155.121V195.546Z" fill="#B0AFAF"/>
<path id="Vector_55" d="M490.737 88.3493C482.504 70.0622 464.573 47.9503 425.922 46.1803V46.127H425.456L411.762 46.8207V46.8919C373.368 48.7775 355.52 70.8093 347.312 89.0342C341.846 101.389 338.943 114.861 338.804 128.526L343.533 128.401L348.261 128.286C348.465 116.12 351.084 104.139 355.945 93.1346C366.367 70.2578 385.547 58.099 412.944 56.9694L425.056 56.2489C452.469 57.3696 471.657 69.5463 482.072 92.4141C486.94 103.422 489.565 115.41 489.772 127.583L494.5 127.699L499.229 127.823C499.093 114.165 496.196 100.7 490.737 88.3493Z" fill="#626262"/>
</g>
<g id="table">
<path id="Vector_56" d="M706.753 514.994H61.8354V700H706.753V514.994Z" fill="#D6D6E3"/>
<path id="Vector_57" opacity="0.1" d="M706.753 527.446H61.8354V551.461H706.753V527.446Z" fill="black"/>
<path id="Vector_58" d="M750 512.325H18.5723V536.34H750V512.325Z" fill="#D6D6E3"/>
</g>
</g>
<defs>
<linearGradient id="paint0_linear" x1="384.29" y1="524.333" x2="384.29" y2="41.8044" gradientUnits="userSpaceOnUse">
<stop stop-color="#808080" stop-opacity="0.25"/>
<stop offset="0.54" stop-color="#808080" stop-opacity="0.12"/>
<stop offset="1" stop-color="#808080" stop-opacity="0.1"/>
</linearGradient>
<clipPath id="clip0">
<rect width="750" height="700" fill="white"/>
</clipPath>
</defs>
</svg>
